<?xml version="1.0" standalone="no"?>
<!DOCTYPE svg PUBLIC "-//W3C//DTD SVG 20010904//EN"
 "http://www.w3.org/TR/2001/REC-SVG-20010904/DTD/svg10.dtd">
<svg version="1.0" xmlns="http://www.w3.org/2000/svg"
 width="370.000000pt" height="370.000000pt" viewBox="0 0 370.000000 370.000000"
 preserveAspectRatio="xMidYMid meet">
<metadata>
Created by potrace 1.14, written by Peter Selinger 2001-2017
</metadata>
<g transform="translate(0.000000,370.000000) scale(0.100000,-0.100000)"
fill="#000000" stroke="none">
<path d="M2366 3673 c-3 -3 -27 -6 -53 -7 -27 -1 -55 -6 -63 -11 -18 -11 -35
-15 -79 -19 -19 -1 -39 -10 -46 -19 -7 -9 -17 -17 -24 -17 -6 0 -25 -13 -42
-30 -17 -16 -39 -32 -48 -35 -17 -6 -81 -105 -81 -126 0 -7 -7 -20 -16 -30 -8
-9 -17 -26 -18 -36 -4 -28 -33 -29 -31 -1 1 13 -3 32 -8 43 -6 11 -12 25 -13
30 0 6 -2 15 -4 20 -1 6 -3 15 -4 20 -3 25 -32 75 -43 75 -7 0 -13 4 -13 9 0
14 -108 73 -120 66 -5 -3 -10 1 -10 11 0 13 -3 14 -14 5 -8 -7 -17 -8 -20 -3
-3 5 -26 10 -51 11 -159 7 -247 0 -272 -21 -8 -7 -22 -13 -30 -14 -26 -4 -88
-66 -88 -87 0 -5 -8 -14 -17 -21 -9 -7 -18 -23 -20 -37 -2 -13 -9 -33 -15 -44
-5 -11 -13 -32 -17 -47 -3 -15 -20 -35 -38 -46 -44 -28 -168 -156 -172 -179
-2 -11 -20 -48 -39 -83 -28 -53 -34 -75 -32 -118 1 -29 -2 -55 -6 -57 -7 -5
-4 -85 6 -125 3 -14 7 -29 9 -35 1 -5 8 -21 16 -35 7 -14 12 -25 11 -25 -10 0
22 -81 38 -99 20 -21 21 -24 21 -49 0 -14 33 -56 98 -125 23 -25 42 -48 42
-53 0 -4 17 -17 38 -30 20 -12 46 -30 57 -40 12 -10 30 -20 40 -22 30 -4 46
-17 39 -30 -4 -7 -4 -9 1 -5 8 8 75 -24 108 -51 9 -8 27 -15 40 -16 18 -1 22
-8 23 -36 0 -19 3 -40 7 -46 4 -6 2 -15 -3 -18 -15 -9 20 -47 37 -41 7 3 13
-1 13 -9 0 -8 7 -15 16 -15 10 0 14 6 10 15 -3 8 0 15 7 15 7 0 18 14 24 30
10 26 9 33 -7 48 -18 16 -25 36 -34 95 -3 20 1 30 15 38 27 14 49 5 49 -22 0
-11 8 -23 18 -26 22 -6 84 -111 70 -119 -6 -4 -5 -9 3 -14 14 -9 20 -50 10
-65 -11 -16 -7 -35 9 -45 13 -8 17 -31 20 -104 1 -11 5 -27 11 -38 9 -16 21
-98 20 -140 0 -10 4 -20 9 -23 6 -3 5 -16 0 -31 -13 -33 -13 -34 4 -34 8 0 13
-9 12 -22 -1 -13 0 -27 3 -33 6 -10 7 -17 14 -113 3 -29 7 -56 11 -59 3 -3 0
-13 -7 -21 -8 -10 -8 -13 -1 -9 18 10 23 -24 15 -94 -2 -21 -18 1 -16 23 1 13
-4 31 -11 42 -7 10 -10 24 -8 31 3 7 -4 33 -16 58 -12 25 -23 52 -24 59 -1 7
-7 23 -14 34 -6 12 -8 24 -5 28 3 3 1 6 -6 6 -7 0 -9 5 -6 10 3 6 1 10 -5 10
-6 0 -9 4 -5 9 3 5 1 12 -4 15 -4 3 -11 20 -15 37 -3 18 -9 30 -12 27 -3 -4 8
-44 24 -91 17 -47 28 -88 25 -91 -3 -3 -1 -12 5 -19 7 -8 9 -17 6 -20 -4 -3
-3 -14 1 -24 5 -10 9 -27 10 -38 1 -11 5 -33 9 -50 4 -16 8 -35 9 -41 2 -6 10
-19 20 -28 9 -10 18 -22 18 -27 2 -10 5 -25 9 -36 1 -5 2 -12 1 -17 -1 -5 5
-26 13 -47 9 -22 13 -39 11 -39 -3 0 -1 -8 4 -18 12 -22 22 -67 24 -99 1 -13
4 -23 7 -23 3 0 4 -24 4 -52 -1 -29 1 -57 5 -63 8 -13 7 -37 -2 -52 -5 -7 -6
-13 -2 -13 3 0 0 -10 -6 -22 -7 -13 -13 -53 -14 -89 -2 -37 -6 -72 -9 -78 -4
-6 -2 -11 3 -11 6 0 11 -5 11 -11 0 -5 -4 -8 -9 -5 -10 6 -9 -144 1 -160 4 -6
1 -22 -7 -37 -7 -14 -10 -28 -7 -31 3 -4 6 -48 7 -99 3 -114 3 -113 17 -99 12
12 53 -3 44 -16 -3 -5 0 -14 5 -22 7 -11 9 -4 7 22 -1 20 4 43 11 51 7 9 8 18
2 21 -6 4 -6 18 -1 35 4 16 7 31 5 33 -2 2 -6 16 -9 31 -3 19 0 27 10 27 8 0
14 -8 15 -17 0 -10 2 -42 4 -71 1 -30 8 -59 14 -65 8 -8 9 -5 6 11 -2 12 0 24
5 27 5 3 8 23 6 45 -2 27 1 40 9 40 7 0 12 -10 12 -22 1 -47 3 -58 14 -58 5 0
7 5 3 11 -4 7 -8 39 -10 73 -4 60 -10 121 -14 121 -2 0 -10 54 -14 105 -2 25
-7 65 -11 90 -4 25 -8 59 -10 75 -1 17 -4 30 -5 30 -1 0 -3 14 -5 30 -1 17 -5
44 -9 61 -4 22 -1 35 8 44 8 6 13 17 10 25 -3 7 2 39 11 71 9 33 18 66 19 74
2 8 6 22 9 30 4 8 9 26 11 40 3 14 5 25 6 25 1 0 3 10 4 22 2 14 -3 23 -11 23
-12 0 -17 21 -14 65 2 33 10 110 11 110 3 0 9 40 12 68 1 15 8 27 14 27 14 0
25 51 15 65 -11 14 -2 150 10 150 2 0 3 10 12 95 6 47 10 64 21 72 5 3 11 37
13 75 7 131 9 148 16 161 5 6 5 16 2 22 -3 5 1 22 8 37 8 15 13 36 12 46 -3
15 6 21 27 18 4 0 15 10 25 22 10 13 24 22 31 19 15 -5 16 -34 0 -50 -7 -7 -8
-12 -3 -12 5 0 -2 -11 -14 -24 -19 -21 -21 -29 -13 -59 7 -24 6 -39 -1 -46 -6
-6 -8 -11 -4 -11 4 0 -3 -16 -14 -36 -14 -26 -17 -39 -9 -44 8 -5 7 -10 -3
-19 -10 -8 -14 -28 -13 -59 1 -26 -4 -57 -12 -69 -7 -12 -13 -24 -12 -28 6
-20 -14 -85 -26 -85 -9 0 -13 -8 -10 -22 2 -13 -1 -29 -7 -36 -8 -10 -7 -16 3
-22 10 -6 11 -12 4 -22 -6 -7 -10 -30 -9 -50 0 -21 -3 -38 -9 -38 -5 0 -6 -3
-3 -7 4 -3 0 -17 -8 -29 -9 -15 -11 -25 -5 -29 6 -4 7 -12 3 -18 -9 -15 -14
-35 -16 -64 0 -13 -7 -23 -14 -23 -8 0 -11 -9 -9 -22 3 -13 5 -26 5 -30 2 -19
27 -6 28 15 1 12 4 33 7 47 3 14 9 39 13 55 3 17 7 39 7 50 1 11 5 27 11 35 5
8 11 24 12 35 3 21 8 53 16 97 3 14 10 35 15 45 6 10 9 33 7 51 -1 18 1 35 6
38 5 3 7 10 4 15 -4 5 -2 9 4 9 5 0 8 8 6 18 -1 9 2 26 8 37 6 11 12 36 13 55
2 43 11 78 22 94 4 6 7 21 6 33 -1 24 34 68 56 68 21 0 42 46 28 62 -7 9 -7
13 1 13 6 0 11 7 11 15 0 8 6 15 13 15 7 0 34 13 60 30 26 16 47 27 47 23 0
-3 9 2 21 13 12 10 23 18 25 17 15 -10 34 0 34 17 0 11 3 20 8 19 17 -3 52 14
52 26 0 6 10 17 23 22 12 6 31 18 42 27 56 45 115 86 122 86 25 0 158 150 181
204 7 17 20 38 29 48 9 10 17 28 17 40 1 13 5 29 10 36 4 7 5 16 2 19 -3 3 -1
12 4 19 6 6 13 23 17 35 10 41 10 143 0 157 -5 6 -6 12 -2 12 4 0 2 7 -5 15
-7 8 -9 15 -5 15 4 0 2 6 -4 13 -6 8 -8 17 -4 20 3 4 -7 26 -22 49 -16 24 -39
60 -53 80 -13 21 -33 40 -43 43 -11 4 -17 11 -13 16 3 5 -9 17 -27 27 -53 28
-80 61 -73 91 12 57 -14 166 -45 185 -6 4 -9 11 -6 16 3 5 -3 15 -12 22 -10 7
-22 21 -28 31 -5 10 -14 18 -20 18 -5 0 -23 13 -40 28 -56 52 -96 74 -141 76
-24 1 -45 0 -48 -2z m-327 -1465 c-6 -10 -15 -16 -20 -12 -6 3 -5 -4 2 -17 7
-13 12 -28 11 -33 -2 -4 5 -14 14 -20 16 -12 21 -52 11 -91 -9 -36 -21 -110
-22 -135 -1 -14 -6 -42 -12 -62 -6 -21 -10 -46 -8 -55 1 -10 0 -22 -4 -28 -3
-5 -7 -21 -8 -35 -5 -50 -11 -95 -13 -95 -5 0 -18 -86 -23 -150 -1 -16 -6 -35
-9 -41 -4 -5 -5 -19 -4 -30 2 -10 1 -23 -3 -29 -7 -12 -10 -36 -24 -193 -2
-24 -9 -47 -14 -50 -6 -4 -9 -23 -8 -42 1 -19 0 -39 -3 -45 -4 -5 -8 -26 -9
-45 -2 -19 -5 -44 -7 -55 -3 -11 -5 -24 -5 -28 -1 -5 -6 -5 -11 -2 -6 4 -8 11
-5 16 4 5 3 15 -1 21 -8 13 -11 25 -18 98 -3 25 -8 68 -12 95 -3 28 -7 93 -9
145 -1 52 -3 97 -4 100 -1 3 -4 28 -6 55 -1 28 -4 50 -5 50 -1 0 -3 25 -5 55
-1 30 -3 55 -5 55 -1 0 -3 30 -5 66 -1 37 -5 71 -9 78 -4 6 -3 11 3 11 5 0 8
11 7 24 -2 14 3 27 10 30 8 3 11 15 8 33 -7 35 -7 53 0 78 2 11 5 25 5 31 1 6
12 16 26 22 14 6 25 18 25 26 0 13 18 38 94 129 12 15 33 48 46 73 16 32 25
42 31 33 4 -7 3 -21 -2 -31z m-334 -238 c29 -32 37 -71 19 -98 -16 -24 -17
-25 -30 -7 -7 10 -11 22 -8 26 3 5 0 18 -6 29 -6 11 -13 44 -15 72 l-5 53 16
-30 c8 -16 22 -37 29 -45z m40 -197 c2 -12 9 -32 16 -44 10 -19 19 -87 20
-144 1 -45 -35 -90 -38 -47 -2 25 -14 86 -19 91 -2 2 3 15 10 30 15 29 11 51
-8 51 -7 0 -13 6 -14 13 -4 34 -11 67 -16 76 -9 14 17 20 32 7 7 -7 14 -22 17
-33z m127 -1485 c-9 -9 -12 -7 -12 12 0 19 3 21 12 12 9 -9 9 -15 0 -24z"/>
<path d="M1480 1952 c0 -18 29 -104 46 -134 8 -16 12 -28 8 -28 -3 0 -1 -6 5
-14 7 -8 14 -22 16 -32 10 -43 34 -99 44 -102 5 -2 4 10 -5 27 -8 16 -17 38
-19 48 -4 22 -19 60 -44 117 -11 24 -23 58 -26 77 -6 33 -25 65 -25 41z"/>
<path d="M1590 1626 c0 -2 7 -9 15 -16 13 -11 14 -10 9 4 -5 14 -24 23 -24 12z"/>
<path d="M1959 1158 c-1 -2 -2 -18 -4 -36 -2 -26 1 -32 14 -30 20 4 25 68 5
68 -8 0 -15 -1 -15 -2z"/>
</g>
</svg>
